<svg xmlns="http://www.w3.org/2000/svg" width="240" height="240" viewBox="0 0 240 240" role="img" aria-label="抖音二维码占位图">
  <rect width="240" height="240" fill="#161f19"/>
  <rect x="6" y="6" width="228" height="228" fill="none" stroke="#233129" stroke-width="1"/>
  <!-- 扫描线风格的假二维码纹理（占位，非真实二维码） -->
  <g><rect x="88.5" y="25.5" width="7.4" height="7.4" fill="#e5e0cd" opacity="0.9"/><rect x="97.5" y="25.5" width="7.4" height="7.4" fill="#e5e0cd" opacity="0.9"/><rect x="133.5" y="25.5" width="7.4" height="7.4" fill="#e5e0cd" opacity="0.7"/><rect x="88.5" y="34.5" width="7.4" height="7.4" fill="#e5e0cd" opacity="0.9"/><rect x="97.5" y="34.5" width="7.4" height="7.4" fill="#e5e0cd" opacity="0.7"/><rect x="106.5" y="34.5" width="7.4" height="7.4" fill="#e5e0cd" opacity="0.5"/><rect x="124.5" y="34.5" width="7.4" height="7.4" fill="#e5e0cd" opacity="0.5"/><rect x="88.5" y="52.5" width="7.4" height="7.4" fill="#e5e0cd" opacity="0.5"/><rect x="115.5" y="52.5" width="7.4" height="7.4" fill="#e5e0cd" opacity="0.9"/><rect x="124.5" y="52.5" width="7.4" height="7.4" fill="#e5e0cd" opacity="0.5"/><rect x="106.5" y="61.5" width="7.4" height="7.4" fill="#e5e0cd" opacity="0.5"/><rect x="142.5" y="61.5" width="7.4" height="7.4" fill="#e5e0cd" opacity="0.9"/><rect x="106.5" y="70.5" width="7.4" height="7.4" fill="#e5e0cd" opacity="0.9"/><rect x="124.5" y="70.5" width="7.4" height="7.4" fill="#e5e0cd" opacity="0.7"/><rect x="106.5" y="79.5" width="7.4" height="7.4" fill="#e5e0cd" opacity="0.7"/><rect x="133.5" y="79.5" width="7.4" height="7.4" fill="#e5e0cd" opacity="0.9"/><rect x="25.5" y="88.5" width="7.4" height="7.4" fill="#e5e0cd" opacity="0.7"/><rect x="34.5" y="88.5" width="7.4" height="7.4" fill="#e5e0cd" opacity="0.9"/><rect x="61.5" y="88.5" width="7.4" height="7.4" fill="#e5e0cd" opacity="0.7"/><rect x="70.5" y="88.5" width="7.4" height="7.4" fill="#e5e0cd" opacity="0.5"/><rect x="160.5" y="88.5" width="7.4" height="7.4" fill="#e5e0cd" opacity="0.5"/><rect x="187.5" y="88.5" width="7.4" height="7.4" fill="#e5e0cd" opacity="0.7"/><rect x="205.5" y="88.5" width="7.4" height="7.4" fill="#e5e0cd" opacity="0.7"/><rect x="25.5" y="97.5" width="7.4" height="7.4" fill="#e5e0cd" opacity="0.5"/><rect x="52.5" y="97.5" width="7.4" height="7.4" fill="#e5e0cd" opacity="0.5"/><rect x="61.5" y="97.5" width="7.4" height="7.4" fill="#e5e0cd" opacity="0.7"/><rect x="97.5" y="97.5" width="7.4" height="7.4" fill="#e5e0cd" opacity="0.9"/><rect x="115.5" y="97.5" width="7.4" height="7.4" fill="#e5e0cd" opacity="0.7"/><rect x="142.5" y="97.5" width="7.4" height="7.4" fill="#e5e0cd" opacity="0.7"/><rect x="169.5" y="97.5" width="7.4" height="7.4" fill="#e5e0cd" opacity="0.5"/><rect x="187.5" y="97.5" width="7.4" height="7.4" fill="#e5e0cd" opacity="0.7"/><rect x="196.5" y="97.5" width="7.4" height="7.4" fill="#e5e0cd" opacity="0.7"/><rect x="61.5" y="106.5" width="7.4" height="7.4" fill="#e5e0cd" opacity="0.9"/><rect x="97.5" y="106.5" width="7.4" height="7.4" fill="#e5e0cd" opacity="0.9"/><rect x="115.5" y="106.5" width="7.4" height="7.4" fill="#e5e0cd" opacity="0.9"/><rect x="133.5" y="106.5" width="7.4" height="7.4" fill="#e5e0cd" opacity="0.9"/><rect x="142.5" y="106.5" width="7.4" height="7.4" fill="#e5e0cd" opacity="0.9"/><rect x="151.5" y="106.5" width="7.4" height="7.4" fill="#e5e0cd" opacity="0.9"/><rect x="160.5" y="106.5" width="7.4" height="7.4" fill="#e5e0cd" opacity="0.9"/><rect x="169.5" y="106.5" width="7.4" height="7.4" fill="#e5e0cd" opacity="0.9"/><rect x="187.5" y="106.5" width="7.4" height="7.4" fill="#e5e0cd" opacity="0.5"/><rect x="205.5" y="106.5" width="7.4" height="7.4" fill="#e5e0cd" opacity="0.9"/><rect x="25.5" y="115.5" width="7.4" height="7.4" fill="#e5e0cd" opacity="0.5"/><rect x="43.5" y="115.5" width="7.4" height="7.4" fill="#e5e0cd" opacity="0.7"/><rect x="52.5" y="115.5" width="7.4" height="7.4" fill="#e5e0cd" opacity="0.5"/><rect x="61.5" y="115.5" width="7.4" height="7.4" fill="#e5e0cd" opacity="0.7"/><rect x="79.5" y="115.5" width="7.4" height="7.4" fill="#e5e0cd" opacity="0.7"/><rect x="133.5" y="115.5" width="7.4" height="7.4" fill="#e5e0cd" opacity="0.7"/><rect x="178.5" y="115.5" width="7.4" height="7.4" fill="#e5e0cd" opacity="0.7"/><rect x="25.5" y="124.5" width="7.4" height="7.4" fill="#e5e0cd" opacity="0.9"/><rect x="43.5" y="124.5" width="7.4" height="7.4" fill="#e5e0cd" opacity="0.9"/><rect x="61.5" y="124.5" width="7.4" height="7.4" fill="#e5e0cd" opacity="0.5"/><rect x="79.5" y="124.5" width="7.4" height="7.4" fill="#e5e0cd" opacity="0.9"/><rect x="115.5" y="124.5" width="7.4" height="7.4" fill="#e5e0cd" opacity="0.5"/><rect x="124.5" y="124.5" width="7.4" height="7.4" fill="#e5e0cd" opacity="0.5"/><rect x="142.5" y="124.5" width="7.4" height="7.4" fill="#e5e0cd" opacity="0.7"/><rect x="151.5" y="124.5" width="7.4" height="7.4" fill="#e5e0cd" opacity="0.7"/><rect x="70.5" y="133.5" width="7.4" height="7.4" fill="#e5e0cd" opacity="0.5"/><rect x="88.5" y="133.5" width="7.4" height="7.4" fill="#e5e0cd" opacity="0.5"/><rect x="97.5" y="133.5" width="7.4" height="7.4" fill="#e5e0cd" opacity="0.7"/><rect x="142.5" y="133.5" width="7.4" height="7.4" fill="#e5e0cd" opacity="0.5"/><rect x="151.5" y="133.5" width="7.4" height="7.4" fill="#e5e0cd" opacity="0.7"/><rect x="178.5" y="133.5" width="7.4" height="7.4" fill="#e5e0cd" opacity="0.5"/><rect x="205.5" y="133.5" width="7.4" height="7.4" fill="#e5e0cd" opacity="0.9"/><rect x="25.5" y="142.5" width="7.4" height="7.4" fill="#e5e0cd" opacity="0.7"/><rect x="34.5" y="142.5" width="7.4" height="7.4" fill="#e5e0cd" opacity="0.5"/><rect x="43.5" y="142.5" width="7.4" height="7.4" fill="#e5e0cd" opacity="0.7"/><rect x="106.5" y="142.5" width="7.4" height="7.4" fill="#e5e0cd" opacity="0.7"/><rect x="115.5" y="142.5" width="7.4" height="7.4" fill="#e5e0cd" opacity="0.9"/><rect x="133.5" y="142.5" width="7.4" height="7.4" fill="#e5e0cd" opacity="0.7"/><rect x="178.5" y="142.5" width="7.4" height="7.4" fill="#e5e0cd" opacity="0.7"/><rect x="205.5" y="142.5" width="7.4" height="7.4" fill="#e5e0cd" opacity="0.5"/><rect x="115.5" y="151.5" width="7.4" height="7.4" fill="#e5e0cd" opacity="0.9"/><rect x="124.5" y="151.5" width="7.4" height="7.4" fill="#e5e0cd" opacity="0.9"/><rect x="151.5" y="151.5" width="7.4" height="7.4" fill="#e5e0cd" opacity="0.9"/><rect x="169.5" y="151.5" width="7.4" height="7.4" fill="#e5e0cd" opacity="0.5"/><rect x="187.5" y="151.5" width="7.4" height="7.4" fill="#e5e0cd" opacity="0.7"/><rect x="205.5" y="151.5" width="7.4" height="7.4" fill="#e5e0cd" opacity="0.7"/><rect x="88.5" y="160.5" width="7.4" height="7.4" fill="#e5e0cd" opacity="0.5"/><rect x="106.5" y="160.5" width="7.4" height="7.4" fill="#e5e0cd" opacity="0.5"/><rect x="115.5" y="160.5" width="7.4" height="7.4" fill="#e5e0cd" opacity="0.9"/><rect x="124.5" y="160.5" width="7.4" height="7.4" fill="#e5e0cd" opacity="0.7"/><rect x="133.5" y="160.5" width="7.4" height="7.4" fill="#e5e0cd" opacity="0.9"/><rect x="151.5" y="160.5" width="7.4" height="7.4" fill="#e5e0cd" opacity="0.5"/><rect x="169.5" y="160.5" width="7.4" height="7.4" fill="#e5e0cd" opacity="0.9"/><rect x="187.5" y="160.5" width="7.4" height="7.4" fill="#e5e0cd" opacity="0.7"/><rect x="205.5" y="160.5" width="7.4" height="7.4" fill="#e5e0cd" opacity="0.7"/><rect x="88.5" y="169.5" width="7.4" height="7.4" fill="#e5e0cd" opacity="0.5"/><rect x="124.5" y="169.5" width="7.4" height="7.4" fill="#e5e0cd" opacity="0.7"/><rect x="142.5" y="169.5" width="7.4" height="7.4" fill="#e5e0cd" opacity="0.7"/><rect x="151.5" y="169.5" width="7.4" height="7.4" fill="#e5e0cd" opacity="0.7"/><rect x="169.5" y="169.5" width="7.4" height="7.4" fill="#e5e0cd" opacity="0.7"/><rect x="205.5" y="169.5" width="7.4" height="7.4" fill="#e5e0cd" opacity="0.9"/><rect x="97.5" y="178.5" width="7.4" height="7.4" fill="#e5e0cd" opacity="0.5"/><rect x="115.5" y="178.5" width="7.4" height="7.4" fill="#e5e0cd" opacity="0.5"/><rect x="124.5" y="178.5" width="7.4" height="7.4" fill="#e5e0cd" opacity="0.9"/><rect x="151.5" y="178.5" width="7.4" height="7.4" fill="#e5e0cd" opacity="0.9"/><rect x="178.5" y="178.5" width="7.4" height="7.4" fill="#e5e0cd" opacity="0.5"/><rect x="187.5" y="178.5" width="7.4" height="7.4" fill="#e5e0cd" opacity="0.9"/><rect x="196.5" y="178.5" width="7.4" height="7.4" fill="#e5e0cd" opacity="0.9"/><rect x="88.5" y="187.5" width="7.4" height="7.4" fill="#e5e0cd" opacity="0.9"/><rect x="115.5" y="187.5" width="7.4" height="7.4" fill="#e5e0cd" opacity="0.7"/><rect x="124.5" y="187.5" width="7.4" height="7.4" fill="#e5e0cd" opacity="0.7"/><rect x="160.5" y="187.5" width="7.4" height="7.4" fill="#e5e0cd" opacity="0.5"/><rect x="178.5" y="187.5" width="7.4" height="7.4" fill="#e5e0cd" opacity="0.5"/><rect x="187.5" y="187.5" width="7.4" height="7.4" fill="#e5e0cd" opacity="0.7"/><rect x="196.5" y="187.5" width="7.4" height="7.4" fill="#e5e0cd" opacity="0.5"/><rect x="205.5" y="187.5" width="7.4" height="7.4" fill="#e5e0cd" opacity="0.9"/><rect x="115.5" y="196.5" width="7.4" height="7.4" fill="#e5e0cd" opacity="0.5"/><rect x="142.5" y="196.5" width="7.4" height="7.4" fill="#e5e0cd" opacity="0.9"/><rect x="151.5" y="196.5" width="7.4" height="7.4" fill="#e5e0cd" opacity="0.9"/><rect x="88.5" y="205.5" width="7.4" height="7.4" fill="#e5e0cd" opacity="0.7"/><rect x="106.5" y="205.5" width="7.4" height="7.4" fill="#e5e0cd" opacity="0.9"/><rect x="124.5" y="205.5" width="7.4" height="7.4" fill="#e5e0cd" opacity="0.7"/><rect x="160.5" y="205.5" width="7.4" height="7.4" fill="#e5e0cd" opacity="0.9"/><rect x="169.5" y="205.5" width="7.4" height="7.4" fill="#e5e0cd" opacity="0.7"/><rect x="178.5" y="205.5" width="7.4" height="7.4" fill="#e5e0cd" opacity="0.9"/><rect x="187.5" y="205.5" width="7.4" height="7.4" fill="#e5e0cd" opacity="0.9"/></g>
  <rect x="25.5" y="25.5" width="63" height="63" fill="none" stroke="#e5e0cd" stroke-width="3"/><rect x="43.5" y="43.5" width="27" height="27" fill="#e5e0cd"/><rect x="151.5" y="25.5" width="63" height="63" fill="none" stroke="#e5e0cd" stroke-width="3"/><rect x="169.5" y="43.5" width="27" height="27" fill="#e5e0cd"/><rect x="25.5" y="151.5" width="63" height="63" fill="none" stroke="#e5e0cd" stroke-width="3"/><rect x="43.5" y="169.5" width="27" height="27" fill="#e5e0cd"/>
  <!-- 扫描线 -->
  <rect x="14" y="119.0" width="212" height="2" fill="#c69a45" opacity=".85"/>
  <rect x="14" y="113.0" width="212" height="14" fill="#c69a45" opacity=".08"/>
  <!-- 占位微型标签 -->
  <rect x="78" y="206" width="84" height="18" fill="#161f19" stroke="#233129"/>
  <text x="120" y="218.5" text-anchor="middle" fill="#e5e0cd" font-size="10" letter-spacing="2" font-family="-apple-system, 'PingFang SC', 'Hiragino Sans GB', 'Microsoft YaHei', sans-serif">占位 QR</text>
  <text x="120" y="24" text-anchor="middle" fill="#e5e0cd" font-size="10" letter-spacing="1.5" font-family="-apple-system, 'PingFang SC', 'Hiragino Sans GB', 'Microsoft YaHei', sans-serif">抖音号：53989584260</text>
</svg>
